<svg xmlns="http://www.w3.org/2000/svg" xmlns:xlink="http://www.w3.org/1999/xlink" width="120" zoomAndPan="magnify" viewBox="0 0 90 89.999999" height="120" preserveAspectRatio="xMidYMid meet" version="1.0"><path fill="#eb9898" d="M 36.902344 2.441406 C 33.632812 3.019531 29.199219 4.621094 25.640625 6.363281 C -1.171875 19.734375 -6.839844 54.324219 14.304688 75.542969 C 25.203125 86.515625 39.300781 90.730469 54.417969 87.53125 C 70.257812 84.191406 83.992188 70.164062 87.40625 54.03125 C 88.714844 47.636719 88.789062 43.570312 87.480469 36.8125 C 84.136719 19.296875 70.113281 5.5625 52.382812 2.441406 C 45.550781 1.203125 43.953125 1.203125 36.902344 2.441406 Z M 54.707031 8.253906 C 76.289062 13.921875 88.570312 37.753906 80.578125 58.757812 C 77.234375 67.621094 70.257812 75.105469 61.390625 79.464844 C 33.707031 92.980469 2.097656 69.074219 7.402344 38.628906 C 9.871094 24.238281 20.917969 12.03125 34.796875 8.324219 C 40.027344 6.945312 49.402344 6.871094 54.707031 8.253906 Z M 54.707031 8.253906 " fill-opacity="1" fill-rule="nonzero"/><path fill="#eb9898" d="M 30 32.015625 C 27.894531 33.175781 26.804688 34.921875 26.730469 36.738281 C 26.730469 38.480469 38.9375 60.28125 41.261719 62.679688 C 42.0625 63.480469 43.660156 64.0625 44.898438 64.0625 C 46.132812 64.0625 47.730469 63.480469 48.53125 62.679688 C 50.273438 60.863281 62.265625 40.082031 62.84375 37.828125 C 63.355469 35.648438 61.972656 32.960938 59.648438 31.941406 C 57.25 30.851562 31.960938 30.925781 30 32.015625 Z M 30 32.015625 " fill-opacity="1" fill-rule="nonzero"/></svg>