<svg xmlns="http://www.w3.org/2000/svg" xmlns:xlink="http://www.w3.org/1999/xlink" width="120" zoomAndPan="magnify" viewBox="0 0 90 89.999999" height="120" preserveAspectRatio="xMidYMid meet" version="1.0"><path fill="#eb9898" d="M 35.636719 2.304688 C 23.75 4.984375 12.222656 13.757812 6.710938 24.34375 C -2.425781 41.886719 0.546875 61.320312 14.542969 75.238281 C 30.199219 90.898438 53.039062 92.421875 71.089844 79.152344 C 79.71875 72.773438 85.664062 62.695312 87.621094 51.242188 C 88.636719 45.367188 88.636719 44.0625 87.621094 38.046875 C 84.867188 21.878906 74.0625 8.972656 58.910156 3.679688 C 52.3125 1.359375 42.308594 0.78125 35.636719 2.304688 Z M 51.734375 7.304688 C 62.535156 9.261719 73.195312 16.949219 78.269531 26.375 C 88.347656 45.296875 81.242188 68.496094 62.464844 78.355469 C 43.394531 88.359375 20.195312 80.675781 10.625 61.171875 C -0.613281 38.191406 14.035156 10.785156 39.554688 7.015625 C 44.917969 6.21875 45.570312 6.21875 51.734375 7.304688 Z M 51.734375 7.304688 " fill-opacity="1" fill-rule="nonzero"/><path fill="#eb9898" d="M 39.84375 33.332031 C 33.535156 37.03125 27.882812 40.582031 27.15625 41.234375 C 25.5625 42.902344 25.632812 46.671875 27.375 48.339844 C 28.894531 49.863281 49.414062 61.824219 51.734375 62.550781 C 53.761719 63.203125 57.097656 61.609375 58.042969 59.507812 C 59.128906 57.039062 59.128906 32.101562 57.96875 30 C 56.808594 27.75 55.140625 26.664062 53.039062 26.664062 C 52.023438 26.664062 46.078125 29.707031 39.84375 33.332031 Z M 39.84375 33.332031 " fill-opacity="1" fill-rule="nonzero"/></svg>