<svg xmlns="http://www.w3.org/2000/svg" xmlns:xlink="http://www.w3.org/1999/xlink" width="120" zoomAndPan="magnify" viewBox="0 0 90 89.999999" height="120" preserveAspectRatio="xMidYMid meet" version="1.0"><path fill="#eb9898" d="M 36.550781 1.550781 C 27.382812 3.089844 16.53125 9.542969 10.589844 17.023438 C -0.410156 30.882812 -2.242188 49.214844 5.75 64.984375 C 11.691406 76.644531 23.128906 85.222656 36.183594 87.714844 C 43.003906 89.035156 47.109375 88.964844 53.5625 87.644531 C 69.84375 84.195312 83.996094 70.335938 87.371094 54.351562 C 90.597656 39.097656 86.34375 24.871094 75.269531 13.871094 C 64.710938 3.382812 51.289062 -0.941406 36.550781 1.550781 Z M 56.570312 8.148438 C 73.949219 13.503906 85.464844 32.128906 82.675781 50.390625 C 78.644531 76.570312 50.117188 91.015625 26.648438 78.695312 C -1.144531 64.175781 -0.484375 24.210938 27.75 10.277344 C 37.0625 5.730469 46.375 4.996094 56.570312 8.148438 Z M 56.570312 8.148438 " fill-opacity="1" fill-rule="nonzero"/><path fill="#eb9898" d="M 33.324219 27.363281 C 32.664062 27.875 31.78125 28.976562 31.34375 29.855469 C 30.167969 31.984375 30.167969 57.210938 31.269531 59.703125 C 32.296875 61.832031 35.597656 63.445312 37.722656 62.710938 C 39.996094 61.976562 60.675781 49.949219 62.289062 48.335938 C 64.125 46.648438 64.125 42.835938 62.289062 41.078125 C 60.015625 38.804688 37.796875 26.410156 36.035156 26.410156 C 35.230469 26.410156 33.984375 26.851562 33.324219 27.363281 Z M 33.324219 27.363281 " fill-opacity="1" fill-rule="nonzero"/></svg>