<svg xmlns="http://www.w3.org/2000/svg" xmlns:xlink="http://www.w3.org/1999/xlink" width="120" zoomAndPan="magnify" viewBox="0 0 90 89.999999" height="120" preserveAspectRatio="xMidYMid meet" version="1.0"><path fill="#eb9898" d="M 34.246094 2.28125 C 19.914062 5.734375 7.199219 17.863281 2.640625 32.34375 C 0.289062 39.765625 0.363281 50.863281 2.789062 58.363281 C 7.933594 74.089844 21.382812 85.554688 37.996094 88.347656 C 44.09375 89.378906 45.417969 89.378906 51.371094 88.347656 C 70.1875 85.1875 84.375 71.589844 87.828125 53.4375 C 89.152344 46.601562 89.078125 42.484375 87.753906 36.015625 C 84.375 19.921875 70.851562 5.957031 54.972656 2.207031 C 49.167969 0.882812 39.90625 0.882812 34.246094 2.28125 Z M 53.0625 7.351562 C 77.683594 12.570312 90.621094 40.5 78.859375 62.84375 C 66.808594 85.777344 35.863281 90.554688 17.636719 72.328125 C 10.066406 64.757812 6.316406 55.570312 6.390625 44.835938 C 6.464844 33.519531 10.726562 23.816406 18.8125 16.539062 C 28.367188 7.941406 40.496094 4.707031 53.0625 7.351562 Z M 53.0625 7.351562 " fill-opacity="1" fill-rule="nonzero"/><path fill="#eb9898" d="M 42.917969 26.09375 C 40.789062 26.902344 40.566406 27.269531 33.070312 40.28125 C 29.394531 46.601562 26.382812 52.554688 26.382812 53.511719 C 26.457031 55.421875 27.632812 57.183594 29.835938 58.289062 C 31.96875 59.464844 57.253906 59.464844 59.75 58.363281 C 61.882812 57.40625 63.5 54.023438 62.839844 51.96875 C 62.101562 49.6875 49.976562 28.8125 48.578125 27.492188 C 46.960938 25.875 44.757812 25.359375 42.917969 26.09375 Z M 42.917969 26.09375 " fill-opacity="1" fill-rule="nonzero"/></svg>